<svg xmlns="http://www.w3.org/2000/svg" xmlns:xlink="http://www.w3.org/1999/xlink" version="1.1" baseProfile="full" viewBox="0 0 200 200" width="200" height="200">
<g fill="black">
<path d="M 108.4 184.7 L 96.4 190.7 L 96.4 129.53636360168457 L 95.1 131.9 L 91.6 137.7 L 87.8 143.4 L 83.8 148.8 L 82.2 148.0 L 84.4 141.7 L 86.8 135.3 L 89.1 129.1 L 91.5 122.8 L 93.9 116.4 L 96.2 110.0 L 100.6 97.0 L 102.8 90.4 L 104.58012752532959 84.7205454826355 L 104.5 84.7 L 105.4 82.3 L 116.2 87.7 L 118.3 90.6 L 114.70392665863037 91.35706806182861 L 113.5 94.3 L 110.7 100.9 L 107.9359375 107.0 L 136.82727270126344 107.0 L 137.1 106.4 L 137.6 104.0 L 138.8 99.4 L 139.4 97.2 L 140.1 94.9 L 142.2395894050598 87.05483875274658 L 142.1 87.0 L 142.43999996185303 86.31999998092651 L 142.5 86.1 L 142.5401487350464 86.11970262527466 L 143.1 85.0 L 153.3 91.4 L 155.1 94.5 L 150.5749225616455 94.89009284973145 L 150.4 95.1 L 148.9 97.0 L 145.9 100.6 L 144.3 102.4 L 142.6 104.2 L 140.9 105.9 L 139.73529415130616 107.0 L 161.01818180084229 107.0 L 169.2 98.0 L 179.2 107.0 L 179.2 111.0 L 143.5 111.0 L 143.5 129.3 L 157.4181818008423 129.3 L 165.6 120.3 L 175.6 129.3 L 175.6 133.3 L 143.5 133.3 L 143.5 151.5 L 157.4181818008423 151.5 L 165.6 142.5 L 175.6 151.5 L 175.6 155.5 L 143.5 155.5 L 143.5 173.7 L 163.3 173.7 L 173.3 163.7 L 185.3 173.7 L 185.3 177.7 L 108.4 177.7 Z M 29.4 176.0 L 17.4 182.0 L 17.4 105.0 L 29.4 107.0 L 32.4 109.0 L 29.4 110.8 L 29.4 160.0 L 42.7 160.0 L 42.7 91.0 L 12.6 91.0 L 12.6 87.0 L 42.7 87.0 L 42.7 48.0 L 33.0546875 48.0 L 30.2 54.3 L 27.1 60.8 L 23.6 67.3 L 19.7 73.8 L 15.4 80.4 L 13.8 79.5 L 16.3 72.2 L 18.7 65.1 L 21.0 58.2 L 23.2 51.5 L 25.2 45.0 L 26.9 38.6 L 28.5 32.4 L 29.9 26.4 L 31.0 20.5 L 31.741397190093995 15.804484653472901 L 31.7 15.8 L 31.877777767181396 14.940740776062011 L 31.9 14.8 L 31.906629180908205 14.801292133331298 L 32.3 12.9 L 43.7 17.1 L 46.2 19.6 L 42.68630132675171 20.901369857788087 L 42.1 23.1 L 40.2 29.2 L 38.1 35.3 L 35.8 41.6 L 34.77142858505249 44.0 L 59.9 44.0 L 69.9 34.0 L 81.9 44.0 L 81.9 48.0 L 54.7 48.0 L 54.7 87.0 L 64.7 87.0 L 74.7 77.0 L 86.7 87.0 L 86.7 91.0 L 54.7 91.0 L 54.7 160.0 L 68.1 160.0 L 68.1 105.0 L 80.1 107.0 L 83.1 109.0 L 80.1 110.8 L 80.1 170.0 L 68.1 176.0 L 68.1 164.0 L 29.4 164.0 Z M 108.4 155.5 L 108.4 173.7 L 131.5 173.7 L 131.5 155.5 Z M 108.4 133.3 L 108.4 151.5 L 131.5 151.5 L 131.5 133.3 Z M 108.4 111.0 L 108.4 129.3 L 131.5 129.3 L 131.5 111.0 Z M 155.0 14.2 L 158.0 16.2 L 155.0 18.0 L 155.0 29.6 L 168.9181818008423 29.6 L 177.1 20.6 L 187.1 29.6 L 187.1 33.6 L 155.0 33.6 L 155.0 46.2 L 143.05 52.175 L 147.9 54.6 L 165.4 54.6 L 171.4 49.6 L 182.4 58.6 L 177.4 62.6 L 177.4 83.1 L 165.4 89.1 L 165.4 81.1 L 147.9 81.1 L 137.9 86.1 L 137.9 49.6 L 143.0 52.15 L 143.0 12.2 Z M 102.9 54.6 L 120.4 54.6 L 125.4 49.6 L 135.4 58.6 L 130.4 61.6 L 130.4 83.1 L 120.4 88.1 L 120.4 81.1 L 102.9 81.1 L 90.9 87.1 L 90.9 48.6 Z M 147.9 58.6 L 147.9 77.1 L 165.4 77.1 L 165.4 58.6 Z M 102.9 58.6 L 102.9 77.1 L 120.4 77.1 L 120.4 58.6 Z M 125.9 14.2 L 128.9 16.2 L 125.9 18.0 L 125.9 46.2 L 113.9 52.2 L 113.9 33.6 L 81.8 33.6 L 81.8 29.6 L 113.9 29.6 L 113.9 12.2 Z " />
</g>
</svg>
